<svg version="1.1" viewBox="0.0 0.0 960.0 720.0" fill="none" stroke="none" stroke-linecap="square" stroke-miterlimit="10" xmlns:xlink="http://www.w3.org/1999/xlink" xmlns="http://www.w3.org/2000/svg"><clipPath id="p.0"><path d="m0 0l960.0 0l0 720.0l-960.0 0l0 -720.0z" clip-rule="nonzero"/></clipPath><g clip-path="url(#p.0)"><path fill="#000000" fill-opacity="0.0" d="m0 0l960.0 0l0 720.0l-960.0 0z" fill-rule="evenodd"/><path fill="#f46c01" d="m401.2756 348.6404l0 0c0 -35.441895 35.246094 -64.17322 78.724396 -64.17322l0 0c43.47827 0 78.72443 28.731323 78.72443 64.17322l0 0c0 35.441895 -35.246155 64.17325 -78.72443 64.17325l0 0c-43.478302 0 -78.724396 -28.731354 -78.724396 -64.17325z" fill-rule="evenodd"/><path stroke="#000000" stroke-width="1.0" stroke-linejoin="round" stroke-linecap="butt" d="m401.2756 348.6404l0 0c0 -35.441895 35.246094 -64.17322 78.724396 -64.17322l0 0c43.47827 0 78.72443 28.731323 78.72443 64.17322l0 0c0 35.441895 -35.246155 64.17325 -78.72443 64.17325l0 0c-43.478302 0 -78.724396 -28.731354 -78.724396 -64.17325z" fill-rule="evenodd"/><path fill="#000000" d="m431.34592 349.53033l0 0c0 -22.674103 21.786469 -41.055115 48.661407 -41.055115l0 0c26.87497 0 48.661438 18.381012 48.661438 41.055115l0 0c0 22.674103 -21.786469 41.055115 -48.661438 41.055115l0 0c-26.874939 0 -48.661407 -18.381012 -48.661407 -41.055115z" fill-rule="evenodd"/><path stroke="#000000" stroke-width="1.0" stroke-linejoin="round" stroke-linecap="butt" d="m431.34592 349.53033l0 0c0 -22.674103 21.786469 -41.055115 48.661407 -41.055115l0 0c26.87497 0 48.661438 18.381012 48.661438 41.055115l0 0c0 22.674103 -21.786469 41.055115 -48.661438 41.055115l0 0c-26.874939 0 -48.661407 -18.381012 -48.661407 -41.055115z" fill-rule="evenodd"/><path fill="#f46c01" d="m441.20056 348.64316l0 0c0 -18.334106 17.372742 -33.19684 38.80313 -33.19684l0 0c21.43039 0 38.80313 14.862732 38.80313 33.19684l0 0c0 18.334137 -17.372742 33.19687 -38.80313 33.19687l0 0c-21.43039 0 -38.80313 -14.862732 -38.80313 -33.19687z" fill-rule="evenodd"/><path stroke="#000000" stroke-width="1.0" stroke-linejoin="round" stroke-linecap="butt" d="m441.20056 348.64316l0 0c0 -18.334106 17.372742 -33.19684 38.80313 -33.19684l0 0c21.43039 0 38.80313 14.862732 38.80313 33.19684l0 0c0 18.334137 -17.372742 33.19687 -38.80313 33.19687l0 0c-21.43039 0 -38.80313 -14.862732 -38.80313 -33.19687z" fill-rule="evenodd"/><path fill="#000000" d="m431.34592 378.25632l31.937012 0l0 5.165344l-31.937012 0z" fill-rule="evenodd"/><path stroke="#000000" stroke-width="1.0" stroke-linejoin="round" stroke-linecap="butt" d="m431.34592 378.25632l31.937012 0l0 5.165344l-31.937012 0z" fill-rule="evenodd"/><path fill="#000000" d="m497.0085 378.25632l31.653534 0l0 5.165344l-31.653534 0z" fill-rule="evenodd"/><path stroke="#000000" stroke-width="1.0" stroke-linejoin="round" stroke-linecap="butt" d="m497.0085 378.25632l31.653534 0l0 5.165344l-31.653534 0z" fill-rule="evenodd"/><path fill="#f46c01" d="m463.28665 372.87125l33.73227 0l0 19.086609l-33.73227 0z" fill-rule="evenodd"/><path fill="#f46c01" d="m449.93585 383.419l60.125977 0l0 8.75592l-60.125977 0z" fill-rule="evenodd"/><path fill="#000000" d="m523.4199 378.25644l0 22.519684l0 0c0 12.437286 -19.438599 22.519684 -43.417328 22.519684c-23.97873 0 -43.417328 -10.082397 -43.417328 -22.519684l0 -22.519684z" fill-rule="evenodd"/><path stroke="#000000" stroke-width="1.0" stroke-linejoin="round" stroke-linecap="butt" d="m523.4199 378.25644l0 22.519684l0 0c0 12.437286 -19.438599 22.519684 -43.417328 22.519684c-23.97873 0 -43.417328 -10.082397 -43.417328 -22.519684l0 -22.519684z" fill-rule="evenodd"/><path fill="#000000" d="m444.21133 435.53366l6.9921265 -27.968506l57.88974 0l6.9921265 27.968506z" fill-rule="evenodd"/><path stroke="#000000" stroke-width="1.0" stroke-linejoin="round" stroke-linecap="butt" d="m444.21133 435.53366l6.9921265 -27.968506l57.88974 0l6.9921265 27.968506z" fill-rule="evenodd"/></g></svg>