<svg version="1.1" viewBox="0.0 0.0 960.0 720.0" fill="none" stroke="none" stroke-linecap="square" stroke-miterlimit="10" xmlns:xlink="http://www.w3.org/1999/xlink" xmlns="http://www.w3.org/2000/svg"><clipPath id="p.0"><path d="m0 0l960.0 0l0 720.0l-960.0 0l0 -720.0z" clip-rule="nonzero"/></clipPath><g clip-path="url(#p.0)"><path fill="#000000" fill-opacity="0.0" d="m0 0l960.0 0l0 720.0l-960.0 0z" fill-rule="evenodd"/><path fill="#f46c01" d="m95.637794 348.4252l0 0c0 -192.42993 172.08484 -348.4252 384.3622 -348.4252l0 0c212.2774 -9.32201E-14 384.36218 155.99527 384.36218 348.4252l0 0c0 192.4299 -172.08478 348.4252 -384.36218 348.4252l0 0c-212.27737 0 -384.3622 -155.9953 -384.3622 -348.4252z" fill-rule="evenodd"/><path stroke="#000000" stroke-width="1.0" stroke-linejoin="round" stroke-linecap="butt" d="m95.637794 348.4252l0 0c0 -192.42993 172.08484 -348.4252 384.3622 -348.4252l0 0c212.2774 -9.32201E-14 384.36218 155.99527 384.36218 348.4252l0 0c0 192.4299 -172.08478 348.4252 -384.36218 348.4252l0 0c-212.27737 0 -384.3622 -155.9953 -384.3622 -348.4252z" fill-rule="evenodd"/><path fill="#000000" d="m242.44095 353.29922l0 0c0 -123.129074 106.358795 -222.9449 237.55905 -222.9449l0 0c63.004578 0 123.42865 23.48877 167.97961 65.29906c44.550964 41.810272 69.57947 98.51718 69.57947 157.64584l0 0c0 123.12906 -106.358826 222.94485 -237.55908 222.94485l0 0c-131.20026 0 -237.55905 -99.815796 -237.55905 -222.94485z" fill-rule="evenodd"/><path stroke="#000000" stroke-width="1.0" stroke-linejoin="round" stroke-linecap="butt" d="m242.44095 353.29922l0 0c0 -123.129074 106.358795 -222.9449 237.55905 -222.9449l0 0c63.004578 0 123.42865 23.48877 167.97961 65.29906c44.550964 41.810272 69.57947 98.51718 69.57947 157.64584l0 0c0 123.12906 -106.358826 222.94485 -237.55908 222.94485l0 0c-131.20026 0 -237.55905 -99.815796 -237.55905 -222.94485z" fill-rule="evenodd"/><path fill="#f46c01" d="m290.55118 348.4252l0 0c0 -99.53302 84.81912 -180.22047 189.44882 -180.22047l0 0c50.244934 0 98.43201 18.987457 133.96057 52.785355c35.528503 33.797897 55.48822 79.637665 55.48822 127.43512l0 0c0 99.53302 -84.81909 180.22049 -189.44879 180.22049l0 0c-104.6297 0 -189.44882 -80.68747 -189.44882 -180.22049z" fill-rule="evenodd"/><path stroke="#000000" stroke-width="1.0" stroke-linejoin="round" stroke-linecap="butt" d="m290.55118 348.4252l0 0c0 -99.53302 84.81912 -180.22047 189.44882 -180.22047l0 0c50.244934 0 98.43201 18.987457 133.96057 52.785355c35.528503 33.797897 55.48822 79.637665 55.48822 127.43512l0 0c0 99.53302 -84.81909 180.22049 -189.44879 180.22049l0 0c-104.6297 0 -189.44882 -80.68747 -189.44882 -180.22049z" fill-rule="evenodd"/><path fill="#000000" d="m242.44095 509.23883l155.93701 0l0 28.031494l-155.93701 0z" fill-rule="evenodd"/><path stroke="#000000" stroke-width="1.0" stroke-linejoin="round" stroke-linecap="butt" d="m242.44095 509.23883l155.93701 0l0 28.031494l-155.93701 0z" fill-rule="evenodd"/><path fill="#000000" d="m563.00525 509.23883l154.55121 0l0 28.031494l-154.55121 0z" fill-rule="evenodd"/><path stroke="#000000" stroke-width="1.0" stroke-linejoin="round" stroke-linecap="butt" d="m563.00525 509.23883l154.55121 0l0 28.031494l-154.55121 0z" fill-rule="evenodd"/><path fill="#f46c01" d="m398.37534 480.0l164.62991 0l0 103.55908l-164.62991 0z" fill-rule="evenodd"/><path fill="#f46c01" d="m333.19684 537.2703l293.60632 0l0 47.527588l-293.60632 0z" fill-rule="evenodd"/></g></svg>