<svg version="1.1" viewBox="0.0 0.0 960.0 720.0" fill="none" stroke="none" stroke-linecap="square" stroke-miterlimit="10" xmlns:xlink="http://www.w3.org/1999/xlink" xmlns="http://www.w3.org/2000/svg"><clipPath id="p.0"><path d="m0 0l960.0 0l0 720.0l-960.0 0l0 -720.0z" clip-rule="nonzero"/></clipPath><g clip-path="url(#p.0)"><path fill="#000000" fill-opacity="0.0" d="m0 0l960.0 0l0 720.0l-960.0 0z" fill-rule="evenodd"/><path fill="#f46c01" d="m210.4567 360.0l0 0c0 -123.46826 120.67865 -223.55905 269.5433 -223.55905l0 0c148.86469 0 269.54333 100.09079 269.54333 223.55905l0 0c0 123.46826 -120.67865 223.55908 -269.54333 223.55908l0 0c-148.86465 0 -269.5433 -100.09082 -269.5433 -223.55908z" fill-rule="evenodd"/><path stroke="#000000" stroke-width="1.0" stroke-linejoin="round" stroke-linecap="butt" d="m210.4567 360.0l0 0c0 -123.46826 120.67865 -223.55905 269.5433 -223.55905l0 0c148.86469 0 269.54333 100.09079 269.54333 223.55905l0 0c0 123.46826 -120.67865 223.55908 -269.54333 223.55908l0 0c-148.86465 0 -269.5433 -100.09082 -269.5433 -223.55908z" fill-rule="evenodd"/><path fill="#000000" d="m313.40546 363.11673l0 0c0 -78.99844 74.58865 -143.03937 166.59842 -143.03937l0 0c92.009796 0 166.59842 64.040924 166.59842 143.03937l0 0c0 78.998474 -74.58862 143.03937 -166.59842 143.03937l0 0c-92.009766 0 -166.59842 -64.04089 -166.59842 -143.03937z" fill-rule="evenodd"/><path stroke="#000000" stroke-width="1.0" stroke-linejoin="round" stroke-linecap="butt" d="m313.40546 363.11673l0 0c0 -78.99844 74.58865 -143.03937 166.59842 -143.03937l0 0c92.009796 0 166.59842 64.040924 166.59842 143.03937l0 0c0 78.998474 -74.58862 143.03937 -166.59842 143.03937l0 0c-92.009766 0 -166.59842 -64.04089 -166.59842 -143.03937z" fill-rule="evenodd"/><path fill="#f46c01" d="m347.14377 360.00027l0 0c0 -63.86499 59.479126 -115.63779 132.85037 -115.63779l0 0c73.37128 0 132.8504 51.772797 132.8504 115.63779l0 0c0 63.86499 -59.479126 115.63782 -132.8504 115.63782l0 0c-73.37125 0 -132.85037 -51.772827 -132.85037 -115.63782z" fill-rule="evenodd"/><path stroke="#000000" stroke-width="1.0" stroke-linejoin="round" stroke-linecap="butt" d="m347.14377 360.00027l0 0c0 -63.86499 59.479126 -115.63779 132.85037 -115.63779l0 0c73.37128 0 132.8504 51.772797 132.8504 115.63779l0 0c0 63.86499 -59.479126 115.63782 -132.8504 115.63782l0 0c-73.37125 0 -132.85037 -51.772827 -132.85037 -115.63782z" fill-rule="evenodd"/><path fill="#000000" d="m313.40546 463.17282l109.35434 0l0 17.984253l-109.35434 0z" fill-rule="evenodd"/><path stroke="#000000" stroke-width="1.0" stroke-linejoin="round" stroke-linecap="butt" d="m313.40546 463.17282l109.35434 0l0 17.984253l-109.35434 0z" fill-rule="evenodd"/><path fill="#000000" d="m538.2078 463.17282l108.37799 0l0 17.984253l-108.37799 0z" fill-rule="evenodd"/><path stroke="#000000" stroke-width="1.0" stroke-linejoin="round" stroke-linecap="butt" d="m538.2078 463.17282l108.37799 0l0 17.984253l-108.37799 0z" fill-rule="evenodd"/><path fill="#f46c01" d="m422.7577 444.41293l115.46454 0l0 66.456696l-115.46454 0z" fill-rule="evenodd"/><path fill="#f46c01" d="m377.04993 481.15805l205.88977 0l0 30.48819l-205.88977 0z" fill-rule="evenodd"/><path fill="#000000" d="m628.62994 463.17322l0 78.47247l0 0c0 43.33911 -66.543884 78.47241 -148.62994 78.47241c-82.08603 0 -148.62991 -35.1333 -148.62991 -78.47241l0 -78.47247z" fill-rule="evenodd"/><path stroke="#000000" stroke-width="1.0" stroke-linejoin="round" stroke-linecap="butt" d="m628.62994 463.17322l0 78.47247l0 0c0 43.33911 -66.543884 78.47241 -148.62994 78.47241c-82.08603 0 -148.62991 -35.1333 -148.62991 -78.47241l0 -78.47247z" fill-rule="evenodd"/><path fill="#000000" d="m357.45145 662.7244l24.362213 -97.44885l197.35431 0l24.362244 97.44885z" fill-rule="evenodd"/><path stroke="#000000" stroke-width="1.0" stroke-linejoin="round" stroke-linecap="butt" d="m357.45145 662.7244l24.362213 -97.44885l197.35431 0l24.362244 97.44885z" fill-rule="evenodd"/></g></svg>